<?xml version="1.0" encoding="UTF-8" standalone="no"?>
<svg
   xmlns:dc="http://purl.org/dc/elements/1.1/"
   xmlns:cc="http://creativecommons.org/ns#"
   xmlns:rdf="http://www.w3.org/1999/02/22-rdf-syntax-ns#"
   xmlns:svg="http://www.w3.org/2000/svg"
   xmlns="http://www.w3.org/2000/svg"
   xmlns:sodipodi="http://sodipodi.sourceforge.net/DTD/sodipodi-0.dtd"
   xmlns:inkscape="http://www.inkscape.org/namespaces/inkscape"
   width="210mm"
   height="297mm"
   viewBox="0 0 210 297"
   version="1.1"
   id="svg239"
   inkscape:version="1.0.1 (3bc2e813f5, 2020-09-07)"
   sodipodi:docname="treb.svg">
  <defs
     id="defs233" />
  <sodipodi:namedview
     id="base"
     pagecolor="#ffffff"
     bordercolor="#666666"
     borderopacity="1.0"
     inkscape:pageopacity="0.0"
     inkscape:pageshadow="2"
     inkscape:zoom="1.4"
     inkscape:cx="503.26649"
     inkscape:cy="524.92275"
     inkscape:document-units="mm"
     inkscape:current-layer="layer1"
     inkscape:document-rotation="0"
     showgrid="false"
     inkscape:window-width="1680"
     inkscape:window-height="987"
     inkscape:window-x="0"
     inkscape:window-y="0"
     inkscape:window-maximized="1" />
  <metadata
     id="metadata236">
    <rdf:RDF>
      <cc:Work
         rdf:about="">
        <dc:format>image/svg+xml</dc:format>
        <dc:type
           rdf:resource="http://purl.org/dc/dcmitype/StillImage" />
        <dc:title></dc:title>
      </cc:Work>
    </rdf:RDF>
  </metadata>
  <g
     inkscape:label="Layer 1"
     inkscape:groupmode="layer"
     id="layer1">
    <path
       id="path7195-6"
       style="display:inline;fill:#000000;fill-opacity:1;fill-rule:evenodd;stroke:#000000;stroke-width:0.264583px;stroke-linecap:butt;stroke-linejoin:miter;stroke-opacity:1"
       d="m 95.96381,139.40406 c 0.14321,-0.0316 0.28448,-0.0705 0.42375,-0.11627 -0.33124,-2.13762 -0.73151,-4.74082 -1.15704,-7.52047 -0.16932,-0.0119 0.0126,-0.0634 -0.16241,-0.0562 -0.16085,-0.98736 -0.28965,-1.77769 -0.447,-2.74609 -1.56105,0.20645 -3.56929,1.04688 -4.03785,3.24551 -0.86863,4.07586 2.80655,5.27874 2.80655,5.27874 0,-3e-5 -2.40522,-1.80426 -1.20251,-4.1429 0.61328,-1.19246 1.59101,-1.54903 2.52646,-1.5875 0.46328,2.84398 0.8862,5.43118 1.25005,7.64502 z m 0.10439,0.63148 c -0.0422,-0.25617 -0.059,-0.35528 -0.10439,-0.63148 -1.12888,0.249 -2.35588,0.087 -3.30884,-0.0444 -1.93771,-0.26725 -4.87764,-2.93989 -5.14491,-4.9444 -0.26727,-2.00453 2.07131,-6.08063 3.14038,-6.81561 0.47572,-0.32705 2.14512,-1.7675 3.44335,-2.99664 -0.27549,-1.70352 -0.44366,-2.42187 -0.60927,-3.46128 -1.69509,1.0523 -4.17106,2.61722 -5.97446,5.72308 -3.60814,6.21401 0.66777,10.75749 2.40502,12.09384 1.08898,0.83767 3.72706,1.70081 6.15312,1.07693 z m 0.41702,-0.12454 c -0.13819,0.0462 -0.27708,0.0885 -0.41702,0.12454 0.24046,1.46042 0.50029,3.03906 0.59583,3.6003 0.53453,3.14041 -0.20067,3.34105 -2.13838,4.61057 -1.9377,1.26953 -3.40754,-0.2005 -3.40754,-0.2005 4.34313,-3.07361 1.5369,-4.14255 -0.26717,-4.7439 -1.80407,-0.60137 -3.67512,3.87524 -0.60151,5.21157 7.55036,3.07361 7.08251,-3.40771 6.74842,-5.34541 -0.0626,-0.36306 -0.2921,-1.83935 -0.51263,-3.25717 z m -1.68361,-10.9492 c 0.19234,1.25952 0.22388,1.46617 0.42891,2.80552 0.70071,0.049 1.33144,0.22991 1.70067,0.30902 0.93544,0.20048 2.8731,1.53713 1.80402,4.74441 -0.4766,1.42981 -1.35251,2.13991 -2.34765,2.46704 0.0463,0.29855 0.0555,0.35196 0.0977,0.62321 1.28802,-0.43037 2.48601,-1.31351 3.31917,-2.88974 2.47224,-4.67722 -1.67076,-7.35002 -2.53938,-7.75095 -0.34586,-0.15962 -1.33979,-0.36772 -2.46341,-0.30851 z m -0.67335,-4.41368 c -0.17216,0.16756 -0.33712,0.31928 -0.50694,0.48007 0.20397,1.26132 0.4119,2.54649 0.64544,3.98374 0.1806,-0.0238 0.35873,-0.0408 0.53485,-0.0501 -0.3249,-2.12749 -0.47095,-3.08489 -0.67335,-4.41368 z m 1.86759,-14.68748 c -0.88207,-0.038 -1.76885,1.47343 -2.33888,2.4381 -0.86863,1.46997 -1.13564,5.67949 -1.002,6.68176 0.0197,0.14745 0.21776,1.38123 0.35708,2.25568 0.19669,-0.12211 0.37207,-0.22572 0.55966,-0.33848 -10e-4,-0.009 -0.0481,-0.31368 -0.0481,-0.31368 0,0 -1.9377,-2.60575 1.33635,-6.08025 3.27405,-3.47451 2.93991,0.73489 1.80402,3.60805 -0.50228,1.27048 -1.66208,1.92617 -3.09231,2.78588 0.0159,0.1044 0.38915,2.55144 0.55655,3.65042 1.46938,-1.43013 2.97452,-3.07023 3.67161,-4.29845 1.40317,-2.47224 0.73504,-5.34527 -0.46767,-8.75295 -0.41343,-1.17139 -0.87431,-1.61619 -1.33635,-1.63608 z"
       inkscape:connector-curvature="0"
       inkscape:export-xdpi="102.95176"
       inkscape:export-ydpi="102.95176" />
  </g>
</svg>
